<mxfile host="app.diagrams.net" agent="Mozilla/5.0 (Windows NT 10.0; Win64; x64) AppleWebKit/537.36 (KHTML, like Gecko) Chrome/134.0.0.0 Safari/537.36" version="26.1.1">
  <diagram id="prtHgNgQTEPvFCAcTncT" name="Page-1">
    <mxGraphModel dx="875" dy="514" grid="1" gridSize="10" guides="1" tooltips="1" connect="1" arrows="1" fold="1" page="1" pageScale="1" pageWidth="827" pageHeight="1169" math="0" shadow="0">
      <root>
        <mxCell id="0" />
        <mxCell id="1" parent="0" />
        <mxCell id="s1uN8MHhjAgw0uNYi1PM-1" value="" style="rounded=0;whiteSpace=wrap;html=1;strokeWidth=1;fillColor=#f5f5f5;fontColor=#333333;strokeColor=#666666;" vertex="1" parent="1">
          <mxGeometry x="170" y="180" width="520" height="310" as="geometry" />
        </mxCell>
        <mxCell id="s1uN8MHhjAgw0uNYi1PM-2" value="" style="rounded=0;whiteSpace=wrap;html=1;fillColor=#f8cecc;strokeColor=#b85450;" vertex="1" parent="1">
          <mxGeometry x="190" y="200" width="250" height="260" as="geometry" />
        </mxCell>
        <mxCell id="s1uN8MHhjAgw0uNYi1PM-3" value="" style="whiteSpace=wrap;html=1;aspect=fixed;fillColor=#d5e8d4;strokeColor=#82b366;" vertex="1" parent="1">
          <mxGeometry x="510" y="200" width="140" height="140" as="geometry" />
        </mxCell>
        <mxCell id="s1uN8MHhjAgw0uNYi1PM-5" value="" style="whiteSpace=wrap;html=1;aspect=fixed;fillColor=#d5e8d4;strokeColor=#82b366;" vertex="1" parent="1">
          <mxGeometry x="520" y="210" width="140" height="140" as="geometry" />
        </mxCell>
        <mxCell id="s1uN8MHhjAgw0uNYi1PM-4" value="" style="whiteSpace=wrap;html=1;aspect=fixed;fillColor=#d5e8d4;strokeColor=#82b366;" vertex="1" parent="1">
          <mxGeometry x="530" y="225" width="140" height="140" as="geometry" />
        </mxCell>
        <mxCell id="s1uN8MHhjAgw0uNYi1PM-6" value="&lt;span style=&quot;font-family: &amp;quot;Times New Roman&amp;quot;; font-size: 14px;&quot;&gt;Dawn Wire Server&lt;/span&gt;" style="rounded=1;whiteSpace=wrap;html=1;fillColor=#dae8fc;strokeColor=#6c8ebf;" vertex="1" parent="1">
          <mxGeometry x="250" y="220" width="130" height="30" as="geometry" />
        </mxCell>
        <mxCell id="s1uN8MHhjAgw0uNYi1PM-7" value="" style="rounded=1;whiteSpace=wrap;html=1;fillColor=#dae8fc;strokeColor=#6c8ebf;" vertex="1" parent="1">
          <mxGeometry x="225" y="270" width="180" height="120" as="geometry" />
        </mxCell>
        <mxCell id="s1uN8MHhjAgw0uNYi1PM-8" value="&lt;font style=&quot;font-size: 14px;&quot; face=&quot;Times New Roman&quot;&gt;OS Graphics Library&lt;/font&gt;&lt;div&gt;&lt;font style=&quot;font-size: 14px;&quot; face=&quot;Times New Roman&quot;&gt;(DirectX, Mesa, ...)&lt;/font&gt;&lt;/div&gt;" style="rounded=1;whiteSpace=wrap;html=1;fillColor=#dae8fc;strokeColor=#6c8ebf;" vertex="1" parent="1">
          <mxGeometry x="237.5" y="410" width="155" height="40" as="geometry" />
        </mxCell>
        <mxCell id="s1uN8MHhjAgw0uNYi1PM-9" value="&lt;font style=&quot;font-size: 20px;&quot; face=&quot;Times New Roman&quot;&gt;Chrome Browser&lt;/font&gt;" style="text;html=1;align=center;verticalAlign=middle;whiteSpace=wrap;rounded=0;" vertex="1" parent="1">
          <mxGeometry x="490" y="420" width="170" height="30" as="geometry" />
        </mxCell>
        <mxCell id="s1uN8MHhjAgw0uNYi1PM-10" value="&lt;font style=&quot;font-size: 14px;&quot; face=&quot;Times New Roman&quot;&gt;GPU Process&lt;/font&gt;" style="text;html=1;align=center;verticalAlign=middle;whiteSpace=wrap;rounded=0;" vertex="1" parent="1">
          <mxGeometry x="186" y="195" width="90" height="30" as="geometry" />
        </mxCell>
        <mxCell id="s1uN8MHhjAgw0uNYi1PM-12" value="&lt;font style=&quot;font-size: 13px;&quot; face=&quot;Times New Roman&quot;&gt;Renderer Processes&lt;/font&gt;" style="text;html=1;align=center;verticalAlign=middle;whiteSpace=wrap;rounded=0;" vertex="1" parent="1">
          <mxGeometry x="513" y="202" width="160" height="30" as="geometry" />
        </mxCell>
        <mxCell id="s1uN8MHhjAgw0uNYi1PM-16" value="&lt;font style=&quot;font-size: 14px;&quot; face=&quot;Times New Roman&quot;&gt;WebGPU API&lt;/font&gt;" style="rounded=0;whiteSpace=wrap;html=1;fillColor=#dae8fc;strokeColor=#6c8ebf;" vertex="1" parent="1">
          <mxGeometry x="550" y="232" width="110" height="30" as="geometry" />
        </mxCell>
        <mxCell id="s1uN8MHhjAgw0uNYi1PM-17" value="&lt;font face=&quot;Times New Roman&quot; style=&quot;font-size: 14px;&quot;&gt;Dawn Wire Client&lt;/font&gt;" style="rounded=1;whiteSpace=wrap;html=1;fillColor=#dae8fc;strokeColor=#6c8ebf;" vertex="1" parent="1">
          <mxGeometry x="550" y="290" width="110" height="30" as="geometry" />
        </mxCell>
        <mxCell id="s1uN8MHhjAgw0uNYi1PM-20" value="&lt;font face=&quot;Times New Roman&quot; style=&quot;font-size: 14px;&quot;&gt;Dawn Backends&lt;/font&gt;" style="rounded=0;whiteSpace=wrap;html=1;fillColor=#f5f5f5;fontColor=#333333;strokeColor=#666666;" vertex="1" parent="1">
          <mxGeometry x="255" y="350" width="120" height="30" as="geometry" />
        </mxCell>
        <mxCell id="s1uN8MHhjAgw0uNYi1PM-21" value="&lt;font face=&quot;Times New Roman&quot; style=&quot;font-size: 14px;&quot;&gt;Tint&lt;/font&gt;" style="rounded=0;whiteSpace=wrap;html=1;fillColor=#f5f5f5;fontColor=#333333;strokeColor=#666666;" vertex="1" parent="1">
          <mxGeometry x="255" y="280" width="120" height="30" as="geometry" />
        </mxCell>
        <mxCell id="s1uN8MHhjAgw0uNYi1PM-22" value="" style="rounded=0;whiteSpace=wrap;html=1;fillColor=#ffe6cc;strokeColor=#d79b00;" vertex="1" parent="1">
          <mxGeometry x="210" y="500" width="200" height="70" as="geometry" />
        </mxCell>
        <mxCell id="s1uN8MHhjAgw0uNYi1PM-23" value="&lt;font style=&quot;font-size: 20px;&quot; face=&quot;Times New Roman&quot;&gt;GPU Hardware&lt;/font&gt;" style="rounded=0;whiteSpace=wrap;html=1;fillColor=#e1d5e7;strokeColor=#9673a6;" vertex="1" parent="1">
          <mxGeometry x="495" y="520" width="170" height="40" as="geometry" />
        </mxCell>
        <mxCell id="s1uN8MHhjAgw0uNYi1PM-24" value="&lt;font face=&quot;Times New Roman&quot; style=&quot;font-size: 14px;&quot;&gt;Kernel Drivers, e.g.,&lt;/font&gt;&lt;div&gt;&lt;font face=&quot;Times New Roman&quot; style=&quot;font-size: 14px;&quot;&gt;win32k.sys&lt;/font&gt;&lt;/div&gt;" style="rounded=1;whiteSpace=wrap;html=1;fillColor=#f5f5f5;fontColor=#333333;strokeColor=#666666;" vertex="1" parent="1">
          <mxGeometry x="232.5" y="525" width="155" height="35" as="geometry" />
        </mxCell>
        <mxCell id="s1uN8MHhjAgw0uNYi1PM-25" value="&lt;font style=&quot;font-size: 19px;&quot; face=&quot;Times New Roman&quot;&gt;Web&lt;/font&gt;" style="ellipse;shape=cloud;whiteSpace=wrap;html=1;" vertex="1" parent="1">
          <mxGeometry x="540" y="90" width="100" height="70" as="geometry" />
        </mxCell>
        <mxCell id="s1uN8MHhjAgw0uNYi1PM-26" value="&lt;font style=&quot;font-size: 13px;&quot; face=&quot;Times New Roman&quot;&gt;Strong Sandbox&lt;/font&gt;" style="text;html=1;align=center;verticalAlign=middle;whiteSpace=wrap;rounded=0;" vertex="1" parent="1">
          <mxGeometry x="540" y="340" width="120" height="30" as="geometry" />
        </mxCell>
        <mxCell id="s1uN8MHhjAgw0uNYi1PM-27" value="&lt;font style=&quot;font-size: 13px;&quot; face=&quot;Times New Roman&quot;&gt;Weaker Sandbox&lt;/font&gt;" style="text;html=1;align=center;verticalAlign=middle;whiteSpace=wrap;rounded=0;rotation=90;" vertex="1" parent="1">
          <mxGeometry x="140" y="320" width="120" height="30" as="geometry" />
        </mxCell>
        <mxCell id="s1uN8MHhjAgw0uNYi1PM-28" value="&lt;font style=&quot;font-size: 13px;&quot; face=&quot;Times New Roman&quot;&gt;Dawn&lt;/font&gt;" style="text;html=1;align=center;verticalAlign=middle;whiteSpace=wrap;rounded=0;rotation=90;" vertex="1" parent="1">
          <mxGeometry x="175" y="315" width="120" height="30" as="geometry" />
        </mxCell>
      </root>
    </mxGraphModel>
  </diagram>
</mxfile>
